<svg width="33" height="30" viewBox="0 0 33 30" fill="none" xmlns="http://www.w3.org/2000/svg">
<g clip-path="url(#clip0_1_320)">
<path d="M32.6703 20.5614L17.2602 6.55315C17.04 6.35278 16.7867 6.25244 16.5002 6.25244C16.2136 6.25244 15.9599 6.35278 15.7396 6.55315L0.330777 20.5614C0.110027 20.7621 0 20.9923 0 21.2529C0 21.5134 0.110375 21.744 0.330777 21.9443L1.98374 23.4468C2.20414 23.6472 2.45778 23.7473 2.74432 23.7473C3.03085 23.7473 3.28449 23.6472 3.50489 23.4468L16.5002 11.6332L29.4959 23.4476C29.7162 23.6479 29.97 23.7474 30.256 23.7474C30.543 23.7474 30.7967 23.6473 31.017 23.4476L32.6701 21.9444C32.8904 21.7441 32.9999 21.5134 32.9999 21.253C33 20.9923 32.8906 20.7617 32.6703 20.5614Z" fill="white"/>
</g>
<defs>
<clipPath id="clip0_1_320">
<path d="M0 3C0 1.34315 1.34315 0 3 0H30C31.6569 0 33 1.34315 33 3V30H0V3Z" fill="white"/>
</clipPath>
</defs>
</svg>
